<?xml version="1.0" encoding="UTF-8" ?>
<!DOCTYPE svg PUBLIC "-//W3C//DTD SVG 1.1//EN" "http://www.w3.org/Graphics/SVG/1.1/DTD/svg11.dtd">
<svg width="175pt" height="200pt" viewBox="0 0 175 200" version="1.1" xmlns="http://www.w3.org/2000/svg">
<g id="#000000ff">
<path fill="#000000" opacity="1.00" d=" M 53.34 1.50 C 62.67 -2.06 74.17 1.97 79.31 10.51 C 83.83 17.28 84.03 26.63 79.67 33.54 C 74.54 42.53 62.52 47.04 52.88 42.92 C 44.39 39.82 38.38 31.03 38.62 21.99 C 38.63 12.97 44.87 4.49 53.34 1.50 M 55.13 3.11 C 46.77 5.80 40.29 14.09 40.67 23.01 C 41.11 33.07 49.94 41.89 59.98 42.41 C 68.87 42.66 77.45 36.37 79.91 27.82 C 83.32 17.85 76.52 6.12 66.56 3.28 C 62.89 1.90 58.84 1.94 55.13 3.11 Z" />
<path fill="#000000" opacity="1.00" d=" M 31.56 53.46 C 35.59 50.19 40.82 48.64 45.96 48.64 C 55.66 48.62 65.35 48.64 75.05 48.64 C 80.70 48.67 86.53 50.30 90.78 54.16 C 96.17 59.06 99.49 65.68 102.63 72.13 C 106.39 79.39 109.54 86.94 113.06 94.33 C 106.85 97.18 102.42 102.80 99.83 109.00 C 94.18 97.84 88.90 86.47 82.91 75.50 C 82.79 113.78 82.92 152.06 82.85 190.34 C 82.68 195.46 78.11 199.88 72.99 199.82 C 67.82 199.92 63.15 195.18 63.31 190.03 C 63.37 170.45 63.29 150.87 63.35 131.30 C 61.66 131.30 59.97 131.31 58.28 131.32 C 58.37 150.91 58.31 170.50 58.32 190.09 C 58.22 195.43 53.26 200.05 47.92 199.77 C 44.52 199.38 41.33 197.40 39.72 194.35 C 38.23 191.82 38.74 188.79 38.66 186.00 C 38.69 149.24 38.66 112.47 38.67 75.71 C 38.02 76.36 37.48 77.08 37.03 77.88 C 30.67 90.80 23.78 103.46 17.27 116.30 C 15.75 119.46 12.34 121.16 8.95 121.39 C 5.31 120.86 1.75 118.56 0.64 114.91 C -0.81 111.08 1.61 107.40 3.23 104.06 C 8.75 92.61 14.32 81.18 19.91 69.76 C 22.95 63.82 26.26 57.72 31.56 53.46 M 39.07 51.88 C 33.15 53.64 28.92 58.58 25.74 63.63 C 19.72 73.64 15.44 84.54 10.01 94.85 C 7.85 100.09 4.92 104.96 2.69 110.16 C 1.47 112.45 2.83 114.94 4.13 116.85 C 5.48 118.21 7.43 118.69 9.12 119.48 C 11.17 118.66 13.66 118.16 14.85 116.08 C 17.99 111.00 20.08 105.34 23.23 100.26 C 27.46 91.54 32.21 83.10 36.47 74.39 C 37.58 74.31 38.70 74.26 39.83 74.22 C 40.42 75.05 40.72 75.97 40.72 76.97 C 40.69 114.66 40.72 152.35 40.70 190.04 C 40.78 194.05 44.43 197.21 48.23 197.79 C 52.70 197.62 56.44 193.58 56.29 189.13 C 56.32 169.76 56.21 150.39 56.34 131.03 C 56.68 130.58 57.37 129.70 57.71 129.25 C 59.84 129.25 61.98 129.26 64.11 129.35 C 65.11 130.37 65.54 131.58 65.38 133.00 C 65.36 151.99 65.39 170.98 65.36 189.97 C 65.33 194.00 69.07 197.58 73.00 197.81 C 77.07 197.64 80.61 194.10 80.82 190.03 C 80.84 153.02 80.84 116.01 80.82 79.00 C 80.82 77.59 80.89 76.17 81.00 74.77 C 82.27 74.48 84.11 73.59 85.18 74.70 C 89.93 84.61 94.99 94.38 99.83 104.25 C 102.20 99.63 106.01 95.90 110.38 93.17 C 107.47 88.05 105.44 82.50 102.80 77.24 C 99.59 70.97 96.84 64.35 92.29 58.88 C 88.40 53.43 81.55 50.70 74.99 50.67 C 67.32 50.72 59.66 50.64 52.00 50.69 C 47.68 50.74 43.19 50.25 39.07 51.88 Z" />
<path fill="#000000" opacity="1.00" d=" M 127.43 67.57 C 135.38 64.81 144.50 70.76 146.01 78.85 C 147.98 87.04 141.25 95.83 132.91 96.35 C 126.32 97.20 119.77 92.72 117.71 86.50 C 114.59 78.94 119.77 69.77 127.43 67.57 M 124.49 71.54 C 121.01 73.77 119.30 77.86 118.71 81.82 C 119.27 84.95 120.33 88.08 122.52 90.47 C 126.08 94.15 132.17 95.68 136.78 93.08 C 142.55 90.54 146.00 83.06 143.30 77.17 C 141.51 72.41 136.72 69.67 131.94 68.74 C 129.35 69.35 126.64 69.85 124.49 71.54 Z" />
<path fill="#000000" opacity="1.00" d=" M 111.86 102.79 C 114.55 100.24 118.33 99.20 121.97 99.21 C 128.31 99.20 134.66 99.21 141.01 99.20 C 145.13 99.10 149.35 100.54 152.29 103.48 C 155.73 106.98 157.82 111.49 159.99 115.82 C 163.80 123.71 167.77 131.53 171.46 139.47 C 172.98 143.07 170.04 147.68 166.09 147.54 C 163.57 147.93 161.43 146.02 160.35 143.93 C 155.77 135.24 151.43 126.42 146.78 117.78 C 145.95 120.45 146.44 123.26 146.36 126.00 C 146.34 148.35 146.41 170.69 146.33 193.04 C 146.56 196.84 142.89 200.37 139.08 199.81 C 135.29 199.54 132.88 195.65 133.14 192.10 C 133.22 179.45 133.12 166.81 133.20 154.17 C 132.42 154.19 130.85 154.24 130.07 154.26 C 130.36 165.83 130.10 177.42 130.22 189.00 C 130.18 191.22 130.39 193.53 129.51 195.64 C 128.43 198.53 125.10 200.36 122.08 199.74 C 120.14 199.13 118.37 197.78 117.46 195.95 C 116.30 193.46 116.75 190.66 116.67 188.00 C 116.70 166.67 116.69 145.33 116.68 124.00 C 116.69 122.04 116.84 120.09 117.02 118.14 C 116.64 118.42 115.89 118.97 115.52 119.24 C 111.96 126.68 107.94 133.90 104.26 141.28 C 103.09 143.37 102.10 145.83 99.87 147.01 C 96.61 148.74 92.14 146.47 91.48 142.87 C 90.82 140.44 92.34 138.24 93.32 136.15 C 96.72 129.15 100.10 122.15 103.47 115.14 C 105.68 110.68 108.01 106.09 111.86 102.79 M 119.61 101.45 C 113.17 102.34 109.49 108.39 106.67 113.61 C 102.23 122.74 97.70 131.84 93.45 141.06 C 93.10 144.04 97.18 147.07 99.60 144.58 C 102.04 141.74 103.15 138.05 105.03 134.85 C 108.40 129.13 110.83 122.91 114.44 117.34 C 115.77 115.86 117.91 116.23 118.93 117.87 C 118.61 121.24 118.74 124.62 118.72 128.00 C 118.72 149.34 118.73 170.67 118.71 192.00 C 118.56 194.80 120.91 197.96 123.89 197.79 C 126.59 197.34 128.12 194.58 128.16 192.05 C 128.23 178.95 128.04 165.84 128.25 152.74 C 130.44 151.89 132.90 151.97 135.11 152.74 C 135.34 165.85 135.13 178.97 135.21 192.09 C 135.21 193.46 135.74 194.75 136.07 196.07 C 137.55 196.75 139.07 198.40 140.83 197.59 C 143.28 197.00 144.47 194.33 144.31 192.00 C 144.30 169.33 144.32 146.67 144.30 124.00 C 144.32 121.62 144.11 119.20 144.75 116.88 C 145.54 116.74 147.14 116.45 147.93 116.31 C 153.05 123.46 156.04 131.89 160.53 139.43 C 161.87 141.47 162.29 144.61 165.01 145.30 C 167.75 146.36 170.80 142.74 169.46 140.17 C 165.74 133.00 162.57 125.58 158.82 118.42 C 156.00 113.02 153.80 106.77 148.47 103.27 C 144.19 100.40 138.83 101.41 134.00 101.25 C 129.21 101.39 124.38 100.95 119.61 101.45 Z" />
</g>
<g id="#ffffffff">
<path fill="#ffffff" opacity="1.00" d=" M 55.13 3.11 C 58.84 1.94 62.89 1.90 66.56 3.28 C 76.52 6.12 83.32 17.85 79.91 27.82 C 77.45 36.37 68.87 42.66 59.98 42.41 C 49.94 41.89 41.11 33.07 40.67 23.01 C 40.29 14.09 46.77 5.80 55.13 3.11 Z" />
<path fill="#ffffff" opacity="1.00" d=" M 39.07 51.88 C 43.19 50.25 47.68 50.74 52.00 50.69 C 59.66 50.64 67.32 50.72 74.99 50.67 C 81.55 50.70 88.40 53.43 92.29 58.88 C 96.84 64.35 99.59 70.97 102.80 77.24 C 105.44 82.50 107.47 88.05 110.38 93.17 C 106.01 95.90 102.20 99.63 99.83 104.25 C 94.99 94.38 89.93 84.61 85.18 74.70 C 84.11 73.59 82.27 74.48 81.00 74.77 C 80.89 76.17 80.82 77.59 80.82 79.00 C 80.84 116.01 80.84 153.02 80.82 190.03 C 80.61 194.10 77.07 197.64 73.00 197.81 C 69.07 197.58 65.33 194.00 65.36 189.97 C 65.39 170.98 65.36 151.99 65.38 133.00 C 65.54 131.58 65.11 130.37 64.11 129.35 C 61.98 129.26 59.84 129.25 57.71 129.25 C 57.37 129.70 56.68 130.58 56.34 131.03 C 56.21 150.39 56.32 169.76 56.29 189.13 C 56.44 193.58 52.70 197.62 48.23 197.79 C 44.43 197.21 40.78 194.05 40.70 190.04 C 40.72 152.35 40.69 114.66 40.72 76.97 C 40.72 75.97 40.42 75.05 39.83 74.22 C 38.70 74.26 37.58 74.31 36.47 74.39 C 32.21 83.10 27.46 91.54 23.23 100.26 C 20.08 105.34 17.99 111.00 14.85 116.08 C 13.66 118.16 11.17 118.66 9.12 119.48 C 7.43 118.69 5.48 118.21 4.13 116.85 C 2.83 114.94 1.47 112.45 2.69 110.16 C 4.92 104.96 7.85 100.09 10.01 94.85 C 15.44 84.54 19.72 73.64 25.74 63.63 C 28.92 58.58 33.15 53.64 39.07 51.88 Z" />
<path fill="#ffffff" opacity="1.00" d=" M 124.49 71.54 C 126.64 69.85 129.35 69.35 131.94 68.74 C 136.72 69.67 141.51 72.41 143.30 77.17 C 146.00 83.06 142.55 90.54 136.78 93.08 C 132.17 95.68 126.08 94.15 122.52 90.47 C 120.33 88.08 119.27 84.95 118.71 81.82 C 119.30 77.86 121.01 73.77 124.49 71.54 Z" />
<path fill="#ffffff" opacity="1.00" d=" M 119.61 101.45 C 124.38 100.95 129.21 101.39 134.00 101.25 C 138.83 101.41 144.19 100.40 148.47 103.27 C 153.80 106.77 156.00 113.02 158.82 118.42 C 162.57 125.58 165.74 133.00 169.46 140.17 C 170.80 142.74 167.75 146.36 165.01 145.30 C 162.29 144.61 161.87 141.47 160.53 139.43 C 156.04 131.89 153.05 123.46 147.93 116.31 C 147.14 116.45 145.54 116.74 144.75 116.88 C 144.11 119.20 144.32 121.62 144.30 124.00 C 144.32 146.67 144.30 169.33 144.31 192.00 C 144.47 194.33 143.28 197.00 140.83 197.59 C 139.07 198.40 137.55 196.75 136.07 196.07 C 135.74 194.75 135.21 193.46 135.21 192.09 C 135.13 178.97 135.34 165.85 135.11 152.74 C 132.90 151.97 130.44 151.89 128.25 152.74 C 128.04 165.84 128.23 178.95 128.16 192.05 C 128.12 194.58 126.59 197.34 123.89 197.79 C 120.91 197.96 118.56 194.80 118.71 192.00 C 118.73 170.67 118.72 149.34 118.72 128.00 C 118.74 124.62 118.61 121.24 118.93 117.87 C 117.91 116.23 115.77 115.86 114.44 117.34 C 110.83 122.91 108.40 129.13 105.03 134.85 C 103.15 138.05 102.04 141.74 99.60 144.58 C 97.18 147.07 93.10 144.04 93.45 141.06 C 97.70 131.84 102.23 122.74 106.67 113.61 C 109.49 108.39 113.17 102.34 119.61 101.45 Z" />
</g>
</svg>
