<?xml version="1.0" standalone="no"?>
<!DOCTYPE svg PUBLIC "-//W3C//DTD SVG 20010904//EN"
 "http://www.w3.org/TR/2001/REC-SVG-20010904/DTD/svg10.dtd">
<svg version="1.0" xmlns="http://www.w3.org/2000/svg"
 width="716.000000pt" height="833.000000pt" viewBox="0 0 716.000000 833.000000"
 preserveAspectRatio="xMidYMid meet">
<metadata>
Created by potrace 1.16, written by Peter Selinger 2001-2019
</metadata>
<g transform="translate(0.000000,833.000000) scale(0.100000,-0.100000)"
fill="#000000" stroke="none">
<path d="M2402 8320 c-308 -43 -583 -252 -719 -546 -95 -207 -104 -473 -22
-694 70 -189 231 -381 403 -479 315 -179 680 -167 982 34 221 147 379 409 402
668 43 470 -242 878 -695 993 -104 26 -258 37 -351 24z m363 -197 c224 -80
384 -231 473 -445 41 -99 56 -198 49 -329 -9 -182 -82 -342 -217 -479 -85 -86
-177 -145 -301 -192 -82 -31 -89 -32 -244 -32 -152 0 -164 1 -230 27 -211 84
-351 205 -443 386 -70 135 -77 167 -77 341 0 177 7 207 84 354 98 190 309 352
514 396 23 5 103 8 177 6 118 -3 145 -7 215 -33z"/>
<path d="M1800 6304 c-200 -32 -320 -75 -440 -157 -74 -51 -198 -176 -269
-272 -133 -178 -182 -269 -579 -1085 -450 -927 -480 -990 -498 -1059 -49 -196
80 -391 298 -448 58 -15 74 -16 129 -4 151 31 236 105 325 282 31 63 163 319
294 569 131 250 296 572 368 715 72 143 142 274 156 290 l26 30 0 -2415 c0
-1483 3 -2427 9 -2447 42 -143 184 -264 344 -293 162 -30 353 76 431 239 l31
66 3 1273 2 1272 100 0 100 0 2 -1273 3 -1272 32 -68 c58 -122 169 -210 297
-237 216 -44 444 113 485 335 8 41 11 764 11 2434 l1 2376 35 -60 c19 -33 174
-340 345 -682 170 -343 313 -623 317 -623 4 0 23 33 42 73 45 94 134 226 205
304 61 68 183 164 258 203 26 14 47 29 47 35 0 19 -296 657 -431 926 -160 322
-213 414 -314 548 -137 181 -278 296 -445 360 -170 66 -151 64 -960 67 -404 1
-746 0 -760 -2z m1595 -193 c129 -43 223 -99 310 -186 154 -153 238 -284 434
-680 122 -246 361 -759 361 -775 0 -4 -19 -20 -41 -35 -61 -40 -200 -176 -250
-245 l-43 -59 -246 492 c-287 573 -320 633 -363 669 -91 76 -223 30 -254 -89
-10 -38 -13 -567 -13 -2446 l0 -2397 -21 -45 c-24 -51 -85 -110 -135 -131 -45
-19 -147 -18 -187 2 -45 23 -105 82 -128 126 -18 36 -19 75 -19 1290 0 870 -3
1265 -11 1293 -6 22 -25 54 -42 72 -41 43 -103 56 -247 52 -129 -5 -168 -20
-205 -81 -20 -32 -20 -55 -25 -1308 -4 -974 -8 -1281 -17 -1302 -20 -45 -91
-115 -138 -137 -114 -54 -262 5 -325 130 -20 38 -20 74 -20 2439 0 1707 -3
2414 -11 2445 -27 106 -152 156 -242 96 -48 -31 -93 -105 -247 -406 -84 -165
-228 -444 -320 -620 -92 -176 -218 -418 -279 -537 -130 -252 -154 -279 -269
-301 -62 -12 -167 48 -209 120 -22 38 -25 52 -21 106 4 53 18 88 90 237 47 96
201 414 343 705 459 946 533 1082 683 1252 87 99 172 164 280 215 145 69 121
67 982 65 l775 -2 70 -24z"/>
<path d="M5375 5540 c-200 -40 -361 -167 -454 -358 -44 -89 -56 -147 -56 -262
1 -170 58 -304 185 -430 154 -155 352 -212 573 -165 209 44 406 241 462 460
31 123 10 296 -51 417 -121 240 -408 388 -659 338z m290 -199 c90 -44 191
-143 229 -224 82 -175 45 -369 -97 -511 -76 -75 -155 -115 -255 -128 -99 -13
-166 -3 -249 36 -117 57 -191 139 -242 268 -20 49 -22 71 -19 160 3 92 7 110
35 168 57 115 143 197 260 246 51 21 71 24 163 22 97 -3 111 -6 175 -37z"/>
<path d="M4894 4180 c-138 -36 -244 -110 -354 -246 -96 -119 -153 -226 -453
-846 l-282 -583 0 -75 c1 -57 6 -85 22 -116 44 -82 131 -134 228 -134 117 0
179 51 273 225 65 120 374 718 442 855 42 84 75 130 93 130 5 0 7 -10 3 -23
-3 -13 -6 -720 -6 -1573 l-1 -1550 21 -56 c24 -66 96 -138 167 -170 94 -41
232 -4 307 83 74 87 71 46 71 972 l0 827 57 0 58 0 2 -837 3 -838 26 -56 c48
-102 123 -157 229 -166 107 -10 209 45 268 145 l27 47 5 1597 c3 878 8 1599
11 1603 9 8 44 -56 259 -475 348 -678 351 -683 435 -721 53 -25 157 -25 210 0
46 21 111 88 131 137 8 18 14 63 14 99 0 61 -5 76 -89 252 -227 479 -533 1085
-592 1173 -111 166 -213 251 -376 313 -57 21 -70 22 -598 24 -503 2 -545 1
-611 -17z m1106 -150 c137 -26 265 -132 369 -304 30 -48 156 -296 281 -549
302 -614 350 -718 350 -751 0 -38 -49 -86 -89 -86 -17 0 -41 10 -55 23 -14 12
-81 130 -149 262 -68 132 -195 379 -283 549 -173 337 -202 379 -273 391 -71
12 -133 -11 -167 -62 -46 -70 -45 -53 -44 -1695 0 -1368 -1 -1551 -15 -1577
-22 -43 -53 -61 -105 -61 -39 0 -51 5 -76 31 l-29 30 -5 852 c-5 904 -4 883
-53 935 -49 52 -215 67 -301 27 -21 -10 -50 -36 -64 -58 l-27 -41 -5 -851 c-5
-914 -2 -863 -55 -907 -29 -25 -96 -23 -129 3 -61 48 -57 -71 -56 1674 2 1492
1 1596 -15 1623 -27 45 -71 66 -137 67 -51 0 -64 -5 -115 -41 -57 -40 -60 -44
-173 -265 -325 -634 -438 -845 -466 -876 -42 -44 -75 -44 -121 2 -28 28 -34
41 -30 63 6 29 488 1030 564 1172 135 251 285 393 441 420 70 12 970 12 1032
0z"/>
</g>
</svg>
