<?xml version="1.0" encoding="UTF-8" ?>
<!DOCTYPE svg PUBLIC "-//W3C//DTD SVG 1.1//EN" "http://www.w3.org/Graphics/SVG/1.1/DTD/svg11.dtd">
<svg width="455pt" height="221pt" viewBox="0 0 455 221" version="1.1" xmlns="http://www.w3.org/2000/svg">
<g id="#4291d6ff">
<path fill="#4291d6" opacity="1.00" d=" M 149.00 1.00 C 174.95 1.01 200.89 0.99 226.84 1.01 C 226.62 8.76 226.42 16.52 226.50 24.28 C 222.45 25.31 218.16 25.59 214.32 27.31 C 208.80 30.33 205.10 36.63 205.47 42.94 C 206.05 48.83 210.00 54.15 215.22 56.82 C 218.47 58.48 222.19 58.69 225.73 59.27 C 226.63 65.70 226.40 72.20 226.22 78.67 C 218.14 78.60 210.08 79.39 202.00 79.61 C 199.78 79.59 196.76 80.50 196.50 83.08 C 196.14 87.25 196.46 92.11 193.26 95.32 C 188.00 98.95 179.75 98.47 175.64 93.32 C 173.47 89.89 174.30 85.58 173.06 81.87 C 172.21 80.53 170.66 79.70 169.08 79.70 C 162.39 79.39 155.70 79.63 149.01 79.64 C 148.99 53.43 149.00 27.21 149.00 1.00 M 172.92 21.99 C 167.04 24.97 165.83 33.94 170.42 38.53 C 173.98 42.02 179.05 42.94 183.56 44.60 C 185.31 45.30 187.37 46.14 188.02 48.09 C 187.98 51.07 184.77 52.96 182.06 53.00 C 178.35 52.58 175.35 50.10 172.61 47.78 C 169.73 48.17 165.87 50.46 166.50 53.76 C 172.44 61.58 184.77 63.48 192.81 57.86 C 198.31 53.99 199.42 44.43 193.72 40.26 C 189.60 37.10 184.31 36.38 179.67 34.31 C 178.43 33.72 176.71 32.71 177.00 31.08 C 178.31 27.99 182.50 27.19 185.18 28.96 C 187.41 29.92 189.19 32.53 191.85 31.96 C 193.61 30.59 196.34 28.85 195.79 26.28 C 190.63 19.50 180.26 18.24 172.92 21.99 Z" />
<path fill="#4291d6" opacity="1.00" d=" M 232.37 1.00 C 258.79 1.00 285.21 1.00 311.63 1.00 C 311.66 27.16 311.52 53.32 311.56 79.49 C 302.70 79.62 293.84 79.51 284.98 79.78 C 283.75 79.97 281.79 79.79 281.36 81.30 C 280.25 85.25 281.04 89.55 279.47 93.40 C 277.97 97.24 274.16 100.18 269.99 100.30 C 265.93 99.95 262.34 96.90 261.10 93.06 C 259.97 89.56 260.81 85.77 259.77 82.26 C 258.72 80.13 256.15 79.66 254.01 79.62 C 247.10 79.38 240.19 79.58 233.29 79.08 C 232.19 70.12 232.57 61.08 232.49 52.08 C 226.98 51.20 220.42 53.27 215.85 49.23 C 213.68 47.42 211.92 44.91 211.58 42.06 C 212.47 37.39 215.86 32.79 220.75 31.90 C 224.37 31.23 228.08 31.24 231.75 30.83 C 233.01 20.93 232.25 10.95 232.37 1.00 M 257.32 20.14 C 257.23 33.38 257.21 46.64 257.34 59.88 C 260.28 60.00 263.24 60.01 266.19 59.96 C 266.30 55.31 266.27 50.66 266.26 46.00 C 271.25 46.00 276.25 46.02 281.24 45.97 C 281.41 43.31 281.40 40.64 281.23 37.99 C 276.24 38.01 271.25 38.00 266.26 37.99 C 266.26 34.66 266.26 31.34 266.26 28.01 C 272.69 27.98 279.12 28.04 285.55 27.96 C 285.58 25.32 285.58 22.68 285.55 20.04 C 276.14 20.03 266.73 19.85 257.32 20.14 Z" />
<path fill="#4291d6" opacity="1.00" d=" M 149.01 82.45 C 155.46 81.52 162.01 81.49 168.48 82.25 C 169.07 89.42 171.23 97.39 177.95 101.17 C 186.94 107.01 199.94 100.08 201.79 89.98 C 202.30 87.22 202.38 84.41 202.53 81.62 C 211.25 81.71 219.97 81.62 228.70 81.48 C 228.56 90.44 228.71 99.39 228.55 108.34 C 222.28 108.07 215.18 108.77 210.78 113.82 C 207.24 117.21 207.65 123.43 211.56 126.37 C 216.11 130.63 222.59 130.53 228.41 130.67 C 228.99 141.10 228.44 151.55 228.70 161.99 C 202.13 162.01 175.57 162.00 149.00 162.00 C 149.01 135.48 148.98 108.97 149.01 82.45 M 167.23 109.06 C 170.67 117.47 176.38 124.73 180.20 132.94 C 180.72 138.23 180.22 143.58 180.44 148.89 C 183.36 148.99 186.28 149.02 189.20 149.03 C 189.73 143.57 189.01 138.06 189.60 132.62 C 193.62 124.61 199.05 117.29 202.50 109.01 C 199.16 108.97 195.83 109.00 192.49 109.07 C 189.94 113.94 187.36 118.79 184.90 123.71 C 182.36 118.79 179.73 113.92 177.20 109.00 C 173.87 108.99 170.55 108.98 167.23 109.06 Z" />
<path fill="#4291d6" opacity="1.00" d=" M 233.58 82.31 C 240.14 82.30 246.70 82.28 253.26 82.55 C 253.51 90.01 256.52 98.01 263.64 101.43 C 271.93 106.15 282.90 100.74 286.14 92.28 C 287.28 89.10 287.27 85.67 287.40 82.33 C 295.59 81.94 303.79 81.43 312.00 81.69 C 312.00 108.46 312.00 135.23 312.00 162.00 C 285.56 162.00 259.12 162.00 232.69 162.00 C 232.71 152.64 232.66 143.28 232.54 133.93 C 232.40 132.50 232.64 130.76 231.48 129.68 C 227.13 125.47 219.61 128.16 215.61 123.40 C 212.63 119.99 214.41 114.12 218.53 112.55 C 222.37 111.34 226.70 111.49 230.15 109.21 C 231.87 108.06 233.04 106.12 233.05 104.03 C 233.53 96.80 233.10 89.54 233.58 82.31 M 253.35 109.04 C 253.19 122.35 253.24 135.66 253.32 148.97 C 256.25 149.01 259.18 148.99 262.10 148.91 C 262.15 143.27 262.13 137.64 262.13 132.00 C 267.46 132.00 272.80 132.00 278.13 132.00 C 278.16 137.64 278.05 143.29 278.24 148.93 C 281.19 149.01 284.15 149.00 287.10 148.91 C 287.16 135.66 287.14 122.40 287.12 109.14 C 284.15 108.99 281.18 108.98 278.22 109.13 C 278.07 114.08 278.14 119.04 278.13 124.00 C 272.80 124.00 267.46 124.00 262.13 124.00 C 262.13 119.05 262.14 114.10 262.12 109.15 C 259.19 109.01 256.27 108.98 253.35 109.04 Z" />
<path fill="#4291d6" opacity="1.00" d=" M 412.35 187.96 C 414.12 188.01 415.89 188.06 417.67 188.16 C 417.79 196.92 417.72 205.67 417.71 214.43 C 415.89 214.44 414.08 214.46 412.27 214.47 C 412.31 205.64 412.18 196.80 412.35 187.96 Z" />
<path fill="#4291d6" opacity="1.00" d=" M 435.34 188.01 C 437.11 188.01 438.88 188.03 440.65 188.07 C 440.72 190.38 440.73 192.68 440.72 194.99 C 445.05 192.94 451.51 193.70 453.12 198.88 C 454.30 203.95 453.57 209.26 453.63 214.43 C 451.84 214.44 450.06 214.45 448.29 214.44 C 448.18 210.32 448.45 206.18 448.16 202.07 C 447.97 200.07 446.14 198.53 444.19 198.39 C 442.63 198.95 440.92 200.09 440.83 201.92 C 440.56 206.08 440.85 210.26 440.64 214.43 C 438.85 214.44 437.07 214.45 435.29 214.44 C 435.28 205.63 435.19 196.82 435.34 188.01 Z" />
<path fill="#4291d6" opacity="1.00" d=" M 423.52 189.88 C 425.24 189.47 426.98 189.13 428.73 188.84 C 428.80 190.54 428.85 192.25 428.90 193.96 C 429.66 193.99 431.19 194.06 431.95 194.10 C 431.97 195.52 431.99 196.96 432.02 198.39 C 430.97 198.42 429.92 198.46 428.88 198.50 C 428.94 202.13 428.61 205.79 429.06 209.41 C 429.61 209.67 430.70 210.18 431.25 210.44 C 431.24 211.83 431.23 213.23 431.23 214.63 C 428.31 214.58 424.50 213.98 423.65 210.67 C 423.37 206.62 423.47 202.54 423.38 198.48 C 422.70 198.47 421.34 198.46 420.66 198.45 C 420.64 196.97 420.65 195.50 420.67 194.03 C 421.39 194.02 422.83 193.99 423.55 193.97 C 423.54 192.61 423.52 191.24 423.52 189.88 Z" />
<path fill="#4291d6" opacity="1.00" d=" M 4.40 191.30 C 9.18 188.64 15.50 189.95 19.14 193.95 C 18.04 194.98 17.26 196.53 15.78 197.06 C 13.66 196.38 11.85 195.02 9.88 194.04 C 8.60 194.92 7.40 195.91 6.41 197.12 C 9.88 199.48 14.35 199.74 17.68 202.34 C 21.04 205.19 19.78 211.07 16.08 213.06 C 10.84 216.02 3.94 214.44 0.01 210.03 C 1.21 208.91 2.38 206.18 4.41 207.19 C 7.01 208.73 9.78 211.05 12.89 209.28 C 13.18 208.64 13.75 207.36 14.03 206.72 C 10.89 203.73 5.91 204.18 2.89 201.03 C 0.10 198.37 0.92 193.01 4.40 191.30 Z" />
<path fill="#4291d6" opacity="1.00" d=" M 161.64 190.01 C 167.46 189.99 173.28 190.00 179.10 190.00 C 179.10 191.48 179.11 192.97 179.11 194.46 C 175.12 194.46 171.12 194.46 167.13 194.46 C 167.13 196.64 167.13 198.82 167.13 201.00 C 170.25 201.00 173.37 201.00 176.49 201.00 C 176.46 202.48 176.44 203.96 176.41 205.45 C 173.32 205.47 170.23 205.47 167.14 205.46 C 167.14 208.46 167.13 211.47 167.10 214.47 C 165.27 214.46 163.45 214.46 161.62 214.45 C 161.60 206.30 161.56 198.15 161.64 190.01 Z" />
<path fill="#4291d6" opacity="1.00" d=" M 235.06 190.07 C 237.13 190.02 239.20 189.99 241.27 189.97 C 242.84 192.98 244.44 195.97 246.00 198.99 C 247.58 195.97 249.16 192.95 250.80 189.96 C 252.85 189.99 254.89 190.02 256.94 190.08 C 254.46 195.10 251.20 199.71 248.88 204.80 C 248.54 208.00 248.77 211.24 248.74 214.46 C 246.91 214.46 245.08 214.46 243.26 214.46 C 243.23 211.25 243.45 208.03 243.13 204.83 C 240.85 199.70 237.45 195.15 235.06 190.07 Z" />
<path fill="#4291d6" opacity="1.00" d=" M 336.64 189.98 C 338.46 190.00 340.27 190.02 342.09 190.05 C 342.13 193.03 342.13 196.02 342.13 199.00 C 345.42 199.00 348.71 199.00 352.00 199.00 C 351.99 196.01 351.99 193.02 352.03 190.03 C 353.82 190.01 355.62 190.00 357.42 189.99 C 357.51 198.15 357.45 206.30 357.46 214.46 C 355.63 214.46 353.82 214.46 352.00 214.47 C 352.00 210.80 352.00 207.13 352.00 203.46 C 348.71 203.46 345.42 203.46 342.13 203.46 C 342.13 207.13 342.14 210.80 342.10 214.47 C 340.27 214.46 338.44 214.46 336.62 214.45 C 336.60 206.29 336.56 198.14 336.64 189.98 Z" />
<path fill="#4291d6" opacity="1.00" d=" M 23.34 194.04 C 25.08 194.01 26.82 194.00 28.57 194.00 C 28.90 198.58 27.94 203.35 29.17 207.80 C 30.57 211.27 35.97 210.15 36.44 206.66 C 36.73 202.44 36.37 198.19 36.68 193.97 C 38.43 193.99 40.19 194.02 41.95 194.07 C 42.04 200.86 42.00 207.65 41.98 214.45 C 40.17 214.39 38.12 214.78 36.69 213.38 C 32.25 215.57 25.43 214.86 23.79 209.46 C 22.71 204.41 23.45 199.16 23.34 194.04 Z" />
<path fill="#4291d6" opacity="1.00" d=" M 47.25 194.05 C 49.02 194.16 51.15 193.50 52.54 195.01 C 55.98 193.13 60.22 193.84 62.97 196.59 C 62.26 197.83 61.54 199.07 60.82 200.31 C 59.10 199.68 57.41 198.95 55.75 198.16 C 54.50 199.21 52.59 200.08 52.79 202.03 C 52.60 206.16 52.82 210.31 52.66 214.45 C 50.84 214.46 49.02 214.46 47.21 214.45 C 47.11 207.65 47.04 200.85 47.25 194.05 Z" />
<path fill="#4291d6" opacity="1.00" d=" M 63.17 194.04 C 65.03 194.02 66.90 194.03 68.77 194.07 C 70.26 198.11 71.72 202.16 73.24 206.20 C 74.71 202.12 76.18 198.05 77.71 193.99 C 79.58 194.00 81.45 194.00 83.33 194.03 C 81.21 201.07 77.90 207.68 75.09 214.47 C 73.82 214.46 72.55 214.47 71.28 214.47 C 68.63 207.64 65.22 201.09 63.17 194.04 Z" />
<path fill="#4291d6" opacity="1.00" d=" M 86.05 207.75 C 83.33 201.20 89.01 193.45 96.05 193.96 C 102.44 193.33 108.69 200.39 106.22 206.35 C 101.03 206.69 95.82 206.26 90.63 206.58 C 92.22 208.33 94.27 210.36 96.86 209.95 C 98.79 209.38 100.55 208.37 102.44 207.68 C 103.23 208.82 104.00 209.97 104.77 211.13 C 99.50 216.69 88.67 215.25 86.05 207.75 M 95.76 198.12 C 93.96 199.14 92.30 200.38 90.89 201.89 C 94.48 202.05 98.07 202.05 101.66 201.90 C 100.25 199.88 98.09 198.73 95.76 198.12 Z" />
<path fill="#4291d6" opacity="1.00" d=" M 108.17 194.06 C 110.01 194.02 111.84 194.01 113.68 194.03 C 115.21 198.03 116.68 202.05 118.22 206.06 C 119.74 202.03 121.33 198.02 122.86 193.99 C 124.72 194.00 126.58 194.00 128.44 194.03 C 125.37 202.98 121.53 211.66 118.07 220.47 C 116.21 220.46 114.35 220.45 112.50 220.42 C 113.36 217.63 114.42 214.91 115.57 212.23 C 113.10 206.18 110.18 200.29 108.17 194.06 Z" />
<path fill="#4291d6" opacity="1.00" d=" M 134.18 195.14 C 138.41 192.68 144.23 193.89 146.80 198.18 C 145.57 199.07 144.34 199.95 143.08 200.80 C 141.62 198.97 137.08 196.90 137.26 200.77 C 140.01 202.10 143.33 202.31 145.65 204.45 C 148.37 207.10 147.21 212.37 143.62 213.64 C 139.13 215.60 132.27 214.70 130.66 209.37 C 131.75 208.64 132.85 207.93 133.96 207.22 C 135.76 208.23 137.56 210.66 139.85 209.80 C 140.45 209.34 141.66 208.42 142.27 207.97 C 139.31 205.94 135.25 205.95 132.74 203.24 C 130.95 200.79 131.38 196.68 134.18 195.14 Z" />
<path fill="#4291d6" opacity="1.00" d=" M 189.43 194.59 C 196.30 191.73 205.22 197.27 204.40 204.99 C 204.09 212.52 194.99 216.69 188.58 213.57 C 183.81 211.66 181.35 205.98 182.90 201.14 C 183.82 198.05 186.42 195.63 189.43 194.59 M 191.13 199.17 C 187.07 200.92 186.81 207.20 190.78 209.20 C 194.57 211.89 199.92 207.39 198.71 203.16 C 198.18 199.95 194.10 197.07 191.13 199.17 Z" />
<path fill="#4291d6" opacity="1.00" d=" M 207.22 194.08 C 209.00 194.17 211.15 193.48 212.54 195.01 C 215.97 193.14 220.23 193.83 222.97 196.60 C 222.26 197.84 221.54 199.07 220.82 200.31 C 219.09 199.68 217.41 198.95 215.75 198.16 C 214.51 199.21 212.60 200.06 212.79 202.00 C 212.60 206.15 212.82 210.30 212.66 214.45 C 210.84 214.46 209.02 214.46 207.21 214.45 C 207.10 207.66 207.07 200.87 207.22 194.08 Z" />
<path fill="#4291d6" opacity="1.00" d=" M 265.43 194.59 C 272.29 191.73 281.21 197.26 280.40 204.97 C 280.10 212.52 270.98 216.70 264.56 213.56 C 260.13 211.76 257.61 206.69 258.68 202.05 C 259.32 198.55 262.13 195.72 265.43 194.59 M 267.15 199.16 C 263.10 200.89 262.80 207.13 266.72 209.16 C 269.89 211.50 274.49 208.61 274.81 204.97 C 275.48 201.09 270.77 196.74 267.15 199.16 Z" />
<path fill="#4291d6" opacity="1.00" d=" M 284.33 194.04 C 286.07 194.02 287.82 194.00 289.57 194.00 C 289.90 198.58 288.95 203.33 290.16 207.79 C 291.56 211.27 296.96 210.15 297.44 206.66 C 297.73 202.44 297.36 198.19 297.68 193.97 C 299.43 193.99 301.19 194.02 302.95 194.07 C 303.04 200.86 303.00 207.65 302.98 214.45 C 301.17 214.39 299.12 214.78 297.69 213.38 C 294.97 214.44 291.87 215.07 289.06 213.97 C 286.25 212.99 284.48 210.07 284.34 207.18 C 284.14 202.80 284.28 198.42 284.33 194.04 Z" />
<path fill="#4291d6" opacity="1.00" d=" M 307.23 194.07 C 309.01 194.17 311.15 193.48 312.54 195.01 C 315.97 193.14 320.22 193.83 322.97 196.60 C 322.26 197.83 321.54 199.07 320.82 200.31 C 319.09 199.68 317.41 198.95 315.75 198.16 C 314.52 199.20 312.61 200.05 312.79 201.98 C 312.60 206.14 312.82 210.30 312.66 214.45 C 310.84 214.46 309.02 214.46 307.21 214.45 C 307.10 207.66 307.06 200.86 307.23 194.07 Z" />
<path fill="#4291d6" opacity="1.00" d=" M 361.55 205.84 C 359.92 198.14 368.45 191.82 375.54 194.42 C 380.78 195.75 383.36 201.26 382.85 206.34 C 377.44 206.62 372.03 206.31 366.63 206.58 C 367.74 207.67 368.75 208.99 370.27 209.55 C 373.12 210.97 375.78 208.44 378.44 207.68 C 379.22 208.82 380.00 209.97 380.77 211.13 C 375.04 217.33 362.72 214.65 361.55 205.84 M 371.76 198.12 C 369.96 199.14 368.30 200.39 366.87 201.88 C 370.46 202.06 374.06 202.05 377.66 201.90 C 376.24 199.88 374.09 198.73 371.76 198.12 Z" />
<path fill="#4291d6" opacity="1.00" d=" M 390.27 196.28 C 394.11 193.22 399.60 193.33 403.69 195.85 C 403.71 195.39 403.75 194.46 403.77 194.00 C 405.30 194.00 406.84 194.00 408.38 194.00 C 408.50 200.86 408.56 207.72 408.34 214.57 C 406.39 214.37 404.08 214.88 402.64 213.22 C 398.42 215.36 392.85 214.90 389.44 211.47 C 385.16 207.49 385.54 199.76 390.27 196.28 M 392.26 202.23 C 390.76 205.60 393.59 209.69 397.10 210.03 C 400.84 210.06 404.21 205.95 402.62 202.33 C 401.80 199.79 399.11 198.89 396.84 198.09 C 395.15 199.22 392.96 200.14 392.26 202.23 Z" />
</g>
<g id="#ffffffff">
<path fill="#ffffff" opacity="1.00" d=" M 172.92 21.99 C 180.26 18.24 190.63 19.50 195.79 26.28 C 196.34 28.85 193.61 30.59 191.85 31.96 C 189.19 32.53 187.41 29.92 185.18 28.96 C 182.50 27.19 178.31 27.99 177.00 31.08 C 176.71 32.71 178.43 33.72 179.67 34.31 C 184.31 36.38 189.60 37.10 193.72 40.26 C 199.42 44.43 198.31 53.99 192.81 57.86 C 184.77 63.48 172.44 61.58 166.50 53.76 C 165.87 50.46 169.73 48.17 172.61 47.78 C 175.35 50.10 178.35 52.58 182.06 53.00 C 184.77 52.96 187.98 51.07 188.02 48.09 C 187.37 46.14 185.31 45.30 183.56 44.60 C 179.05 42.94 173.98 42.02 170.42 38.53 C 165.83 33.94 167.04 24.97 172.92 21.99 Z" />
<path fill="#ffffff" opacity="1.00" d=" M 257.32 20.14 C 266.73 19.85 276.14 20.03 285.55 20.04 C 285.58 22.68 285.58 25.32 285.55 27.96 C 279.12 28.04 272.69 27.98 266.26 28.01 C 266.26 31.34 266.26 34.66 266.26 37.99 C 271.25 38.00 276.24 38.01 281.23 37.99 C 281.40 40.64 281.41 43.31 281.24 45.97 C 276.25 46.02 271.25 46.00 266.26 46.00 C 266.27 50.66 266.30 55.31 266.19 59.96 C 263.24 60.01 260.28 60.00 257.34 59.88 C 257.21 46.64 257.23 33.38 257.32 20.14 Z" />
<path fill="#ffffff" opacity="1.00" d=" M 167.23 109.06 C 170.55 108.98 173.87 108.99 177.20 109.00 C 179.73 113.92 182.36 118.79 184.90 123.71 C 187.36 118.79 189.94 113.94 192.49 109.07 C 195.83 109.00 199.16 108.97 202.50 109.01 C 199.05 117.29 193.62 124.61 189.60 132.62 C 189.01 138.06 189.73 143.57 189.20 149.03 C 186.28 149.02 183.36 148.99 180.44 148.89 C 180.22 143.58 180.72 138.23 180.20 132.94 C 176.38 124.73 170.67 117.47 167.23 109.06 Z" />
<path fill="#ffffff" opacity="1.00" d=" M 253.35 109.04 C 256.27 108.98 259.19 109.01 262.12 109.15 C 262.14 114.10 262.13 119.05 262.13 124.00 C 267.46 124.00 272.80 124.00 278.13 124.00 C 278.14 119.04 278.07 114.08 278.22 109.13 C 281.18 108.98 284.15 108.99 287.12 109.14 C 287.14 122.40 287.16 135.66 287.10 148.91 C 284.15 149.00 281.19 149.01 278.24 148.93 C 278.05 143.29 278.16 137.64 278.13 132.00 C 272.80 132.00 267.46 132.00 262.13 132.00 C 262.13 137.64 262.15 143.27 262.10 148.91 C 259.18 148.99 256.25 149.01 253.32 148.97 C 253.24 135.66 253.19 122.35 253.35 109.04 Z" />
</g>
</svg>
