<?xml version="1.0" standalone="no"?>
<!DOCTYPE svg PUBLIC "-//W3C//DTD SVG 20010904//EN"
 "http://www.w3.org/TR/2001/REC-SVG-20010904/DTD/svg10.dtd">
<svg version="1.0" xmlns="http://www.w3.org/2000/svg"
 width="860.000000pt" height="893.000000pt" viewBox="0 0 860.000000 893.000000"
 preserveAspectRatio="xMidYMid meet">
<metadata>
Created by potrace 1.16, written by Peter Selinger 2001-2019
</metadata>
<g transform="translate(0.000000,893.000000) scale(0.100000,-0.100000)"
fill="#000000" stroke="none">
<path d="M6665 8746 c-147 -29 -345 -114 -494 -214 -279 -186 -545 -583 -592
-882 -17 -111 -7 -569 15 -645 41 -144 169 -365 310 -532 152 -181 319 -303
556 -404 l155 -67 3 -1023 c3 -1007 -9 -1929 -29 -2264 -11 -193 -35 -323 -85
-475 -141 -423 -445 -786 -846 -1008 -364 -202 -824 -269 -1233 -181 -215 46
-489 163 -660 283 -359 252 -598 604 -711 1049 -49 194 -65 340 -71 638 l-6
276 79 28 c221 78 349 140 500 241 328 220 543 483 783 962 98 197 120 251
146 376 28 136 95 385 275 1021 291 1029 313 1132 276 1315 -39 192 -138 440
-233 583 -88 133 -241 276 -359 335 -88 44 -220 64 -536 78 l-138 6 0 64 c0
75 -22 137 -59 163 -69 49 -241 66 -370 36 -78 -19 -198 -80 -266 -136 -190
-156 -279 -407 -215 -610 68 -219 285 -401 530 -445 243 -43 380 34 380 214 0
30 5 44 16 49 29 11 357 -14 396 -30 42 -18 93 -81 140 -176 29 -57 32 -74 36
-175 7 -190 -51 -464 -239 -1122 -339 -1191 -470 -1491 -775 -1784 -149 -143
-279 -225 -444 -281 -79 -26 -115 -33 -214 -37 -184 -8 -314 23 -482 114 -356
192 -567 487 -762 1069 -106 317 -323 1045 -371 1245 -16 69 -50 188 -75 266
-60 189 -79 293 -79 439 0 172 35 293 114 389 35 42 117 86 162 86 22 0 27 -4
27 -25 0 -67 70 -182 133 -219 91 -54 190 -55 347 -4 294 94 465 307 464 578
0 52 -6 115 -13 140 -58 208 -223 371 -446 439 -266 82 -511 -22 -493 -209 4
-46 -4 -50 -96 -50 -260 0 -555 -227 -723 -556 -105 -206 -137 -339 -136 -574
1 -243 36 -426 148 -765 31 -93 60 -197 64 -230 5 -34 30 -126 56 -205 68
-210 208 -704 251 -882 57 -243 88 -333 168 -493 182 -367 404 -660 631 -831
197 -150 486 -315 629 -360 47 -15 57 -22 66 -50 6 -17 15 -166 20 -330 12
-384 32 -542 105 -809 82 -299 235 -596 442 -855 87 -110 322 -344 443 -442
356 -287 720 -441 1168 -493 170 -20 534 -20 689 0 976 127 1722 761 2058
1747 52 156 73 280 85 505 5 114 10 875 10 1793 l0 1595 123 47 c203 79 344
174 527 358 281 282 395 541 407 927 8 264 -25 437 -121 638 -72 148 -157 264
-290 393 -211 204 -417 313 -706 374 -125 26 -460 34 -565 14z m461 -196 c176
-28 396 -121 544 -231 211 -156 380 -393 442 -618 19 -68 22 -104 22 -331 1
-290 -4 -320 -75 -462 -108 -217 -253 -387 -441 -521 -89 -63 -185 -110 -354
-172 -81 -30 -150 -59 -154 -65 -10 -16 -17 -492 -36 -2325 l-17 -1570 -79
-185 c-93 -217 -164 -356 -252 -489 -373 -565 -951 -934 -1626 -1037 -159 -25
-473 -25 -630 -1 -625 97 -1160 425 -1542 947 -178 243 -301 529 -367 855 -41
206 -58 364 -77 755 -11 226 -20 342 -29 355 -8 14 -62 36 -176 73 -261 85
-432 181 -629 355 -201 177 -455 532 -549 768 -61 152 -414 1416 -577 2064
-97 387 -99 409 -49 595 64 235 149 396 274 520 129 128 235 178 444 210 180
28 216 55 236 179 6 35 18 72 27 82 39 44 230 4 334 -68 64 -45 124 -120 145
-182 38 -111 8 -288 -64 -379 -76 -96 -184 -142 -332 -142 -100 0 -102 1 -112
83 -16 116 -70 152 -237 152 -173 0 -251 -39 -338 -169 -27 -41 -64 -111 -81
-156 -75 -193 -82 -321 -32 -550 104 -478 391 -1472 558 -1935 136 -377 317
-664 545 -862 387 -338 858 -414 1284 -208 272 132 580 458 747 790 169 338
561 1659 667 2246 53 294 2 573 -129 708 -100 103 -221 139 -492 148 -295 9
-330 -6 -339 -155 l-5 -87 -120 0 c-109 0 -125 3 -177 27 -205 96 -281 372
-153 564 76 115 228 194 374 194 62 0 75 -16 90 -109 22 -134 54 -148 383
-171 186 -13 313 -38 393 -75 74 -35 195 -150 265 -251 140 -202 220 -490 190
-682 -30 -198 -120 -555 -291 -1160 -135 -479 -216 -789 -235 -897 -25 -143
-123 -358 -292 -638 -145 -241 -236 -351 -407 -486 -225 -179 -422 -283 -665
-351 -63 -18 -121 -37 -128 -43 -11 -9 -13 -82 -9 -402 4 -335 7 -408 25 -517
108 -653 412 -1120 932 -1438 661 -403 1525 -378 2182 62 286 191 494 429 651
744 87 174 132 297 161 445 58 292 66 543 66 2295 0 1389 -1 1472 -17 1486
-10 8 -95 52 -188 96 -196 93 -273 135 -365 199 -226 160 -417 463 -465 740
-85 489 175 1024 615 1261 129 70 305 121 460 136 58 5 198 -2 276 -14z"/>
</g>
</svg>
