<?xml version="1.0" standalone="no"?>
<!DOCTYPE svg PUBLIC "-//W3C//DTD SVG 20010904//EN"
 "http://www.w3.org/TR/2001/REC-SVG-20010904/DTD/svg10.dtd">
<svg version="1.0" xmlns="http://www.w3.org/2000/svg"
 width="192.000000pt" height="200.000000pt" viewBox="0 0 192.000000 200.000000"
 preserveAspectRatio="xMidYMid meet">
<metadata>
Created by potrace 1.16, written by Peter Selinger 2001-2019
</metadata>
<g transform="translate(0.000000,200.000000) scale(0.100000,-0.100000)"
fill="#000000" stroke="none">
<path d="M1505 1987 c-90 -30 -154 -85 -198 -171 -27 -54 -30 -71 -30 -142 0
-69 4 -88 28 -132 41 -76 103 -135 168 -162 l57 -24 0 -390 c0 -225 -5 -418
-11 -456 -47 -293 -365 -459 -633 -330 -166 79 -256 237 -256 449 l0 79 46 16
c67 23 137 70 190 129 43 48 124 197 124 228 0 8 29 116 64 239 81 285 82 286
61 355 -21 73 -54 126 -101 162 -32 24 -48 28 -116 32 l-78 3 0 29 c0 22 -6
30 -25 35 -92 23 -190 -67 -170 -157 11 -48 66 -96 120 -104 52 -8 75 4 75 42
0 23 2 24 62 21 58 -3 64 -5 85 -37 36 -54 30 -104 -42 -356 -77 -266 -106
-336 -170 -404 -92 -98 -201 -122 -304 -66 -97 53 -148 129 -201 300 -47 151
-71 233 -76 258 -2 13 -11 44 -19 68 -33 92 -27 177 16 220 20 20 75 28 64 9
-4 -6 1 -22 9 -35 19 -29 49 -32 106 -9 109 44 114 183 9 236 -64 33 -138 13
-126 -33 4 -16 -1 -19 -31 -19 -75 0 -154 -72 -188 -174 -21 -62 -14 -155 20
-253 14 -40 23 -73 21 -73 -2 0 3 -19 11 -42 19 -55 64 -216 69 -247 8 -55 84
-187 140 -243 49 -49 139 -105 197 -122 15 -5 18 -18 18 -93 1 -192 56 -331
179 -453 123 -121 240 -170 413 -170 261 0 474 158 560 415 23 69 23 76 23
505 l0 435 47 18 c62 24 137 92 173 158 40 74 46 179 15 261 -27 72 -94 142
-169 176 -65 30 -167 38 -226 19z m217 -40 c66 -30 118 -81 149 -144 19 -38
24 -64 24 -128 0 -70 -4 -87 -30 -134 -37 -68 -100 -123 -167 -147 l-53 -19
-5 -465 -5 -465 -32 -75 c-159 -366 -619 -469 -906 -201 -122 115 -175 241
-184 438 l-6 122 -50 16 c-61 20 -110 51 -161 101 -50 50 -108 140 -123 190
-64 214 -153 548 -153 571 0 45 25 120 54 162 32 46 79 74 136 81 40 4 45 8
48 33 4 35 23 43 72 28 49 -14 80 -53 80 -98 0 -70 -43 -113 -115 -113 -29 0
-34 4 -37 28 -2 22 -8 28 -35 30 -18 2 -41 -2 -53 -8 -30 -16 -60 -83 -60
-134 0 -58 119 -474 163 -570 42 -89 97 -152 169 -191 72 -39 160 -40 233 -3
68 35 140 115 177 196 49 107 158 497 158 565 0 103 -35 145 -125 147 -87 2
-85 3 -85 -30 0 -29 -2 -30 -44 -30 -126 0 -148 175 -26 211 49 15 68 7 72
-28 3 -28 4 -28 83 -33 88 -6 117 -20 160 -76 34 -45 55 -106 55 -163 0 -27
-27 -140 -65 -273 -36 -125 -65 -236 -65 -247 0 -30 -75 -171 -117 -220 -46
-54 -136 -114 -197 -131 l-46 -13 0 -101 c0 -203 73 -348 220 -441 230 -145
549 -57 667 186 50 103 53 135 53 584 l0 414 -73 35 c-79 38 -124 83 -159 163
-55 124 0 291 120 365 86 53 190 59 284 15z"/>
</g>
</svg>
