<?xml version="1.0" encoding="UTF-8" ?>
<!DOCTYPE svg PUBLIC "-//W3C//DTD SVG 1.1//EN" "http://www.w3.org/Graphics/SVG/1.1/DTD/svg11.dtd">
<svg width="186pt" height="174pt" viewBox="0 0 186 174" version="1.1" xmlns="http://www.w3.org/2000/svg">
<g id="#050505f4">
<path fill="#050505" opacity="0.96" d=" M 78.50 0.00 L 92.45 0.00 C 97.60 1.34 102.33 3.81 107.23 5.79 C 110.68 7.20 114.44 6.21 117.99 5.92 C 128.20 4.60 139.05 7.39 147.03 13.99 C 151.63 17.73 154.32 23.61 159.91 26.14 C 165.11 28.65 170.15 31.63 174.20 35.80 C 180.29 41.23 183.88 48.78 186.00 56.54 L 186.00 69.45 C 184.73 77.94 178.60 85.17 179.22 93.96 C 179.51 103.49 177.90 113.47 172.54 121.54 C 169.26 126.67 164.00 129.95 159.52 133.90 C 161.93 141.16 167.38 148.63 164.44 156.55 C 160.56 166.41 150.32 171.72 140.52 174.00 L 134.28 174.00 C 130.36 172.65 126.40 170.42 124.65 166.46 C 121.09 158.79 119.15 150.45 115.23 142.92 C 109.94 141.87 104.30 141.37 99.72 138.26 C 97.38 136.94 95.11 134.82 92.22 135.19 C 86.67 135.59 81.05 136.48 75.51 135.39 C 70.59 134.65 66.16 132.32 61.62 130.46 C 58.51 129.06 55.09 130.05 51.87 130.37 C 43.84 131.28 35.42 131.23 27.83 128.15 C 17.39 124.25 8.74 116.01 3.97 105.99 C 0.52 98.76 0.47 90.33 2.76 82.74 C 4.79 76.54 1.85 70.25 2.19 63.96 C 1.99 55.85 5.54 47.91 11.19 42.18 C 14.98 38.30 20.49 36.11 23.02 31.05 C 26.82 23.80 33.07 17.79 40.73 14.77 C 44.94 13.01 49.53 12.69 53.95 11.75 C 57.38 11.12 60.06 8.74 62.88 6.87 C 67.57 3.58 73.01 1.54 78.50 0.00 M 56.78 14.88 C 52.55 15.04 48.20 14.78 44.13 16.15 C 38.78 17.89 34.00 21.09 29.96 24.96 C 27.06 28.28 25.42 32.45 23.14 36.18 C 18.18 39.79 12.41 42.80 9.23 48.30 C 5.33 55.71 2.55 64.53 5.36 72.81 C 5.89 75.02 7.71 77.28 6.59 79.58 C 4.35 84.63 2.71 90.20 3.48 95.77 C 4.46 103.79 9.28 110.65 14.26 116.74 C 22.92 124.97 35.05 129.46 46.98 128.64 C 51.26 128.60 55.43 127.15 59.72 127.48 C 63.90 128.45 67.47 131.07 71.61 132.19 C 76.26 133.38 81.10 134.23 85.92 133.69 C 88.94 133.40 91.91 132.45 94.97 132.64 C 97.99 133.91 100.30 136.40 103.33 137.69 C 107.74 139.90 112.72 140.28 117.48 141.29 C 119.93 147.55 122.61 153.71 124.86 160.05 C 126.77 163.64 127.05 168.97 131.56 170.40 C 137.92 171.87 144.94 171.16 150.62 167.76 C 156.95 164.95 162.20 158.99 162.97 151.96 C 162.99 144.86 156.70 139.39 157.07 132.23 C 158.01 130.18 160.86 129.86 162.55 128.49 C 170.90 122.51 175.16 112.39 176.66 102.51 C 177.19 97.68 176.47 92.82 176.87 88.00 C 177.58 83.57 180.60 79.97 181.65 75.65 C 182.67 71.53 183.65 67.33 183.82 63.08 C 183.26 58.61 182.90 53.99 181.19 49.77 C 178.19 44.09 174.68 38.42 169.46 34.52 C 165.51 31.52 160.97 29.41 156.46 27.40 C 153.77 26.26 152.48 23.45 150.72 21.31 C 147.36 16.50 142.46 12.90 136.99 10.85 C 129.22 6.87 120.12 7.91 111.77 8.96 C 108.19 9.79 105.08 7.39 102.01 5.96 C 87.11 -1.21 67.81 2.53 56.78 14.88 Z" />
<path fill="#050505" opacity="0.96" d=" M 76.42 14.44 C 82.43 12.57 88.82 13.18 94.94 14.19 C 96.47 19.65 90.91 22.86 89.31 27.50 C 86.27 32.49 86.15 38.78 82.43 43.38 C 79.47 46.23 74.13 44.15 71.53 47.61 C 69.77 49.64 70.95 52.28 71.43 54.56 C 76.47 56.60 82.53 56.34 86.97 53.00 C 88.63 52.02 90.01 50.27 91.98 50.01 C 95.72 51.36 98.97 54.03 102.99 54.58 C 106.50 55.02 109.84 51.57 109.02 48.05 C 109.45 45.02 106.11 44.53 103.93 44.05 C 99.84 43.58 96.76 39.06 97.03 35.14 C 99.37 28.66 104.41 22.97 111.18 21.02 C 116.95 18.07 123.65 18.61 129.90 19.15 C 134.23 20.70 138.35 23.16 141.43 26.62 C 143.61 28.84 144.87 31.74 146.81 34.14 C 151.57 36.78 156.95 38.37 161.32 41.68 C 165.78 45.60 170.78 49.79 172.03 55.92 C 173.87 61.90 172.52 68.11 171.68 74.12 C 167.90 74.30 165.53 71.19 162.69 69.27 C 155.63 63.76 146.82 60.84 137.97 60.03 C 135.16 59.70 131.72 61.16 131.29 64.26 C 130.51 66.81 132.52 69.04 134.54 70.28 C 140.67 71.57 147.47 71.38 152.78 75.20 C 157.64 78.54 162.97 82.44 164.63 88.40 C 166.96 95.68 165.96 103.60 163.83 110.81 C 162.86 114.96 159.14 117.48 156.06 120.05 C 152.22 123.38 146.87 123.51 142.12 124.53 C 142.89 131.48 147.03 137.21 149.56 143.55 C 151.12 146.68 153.11 150.11 151.89 153.73 C 148.03 158.27 142.31 160.77 136.37 160.81 C 133.48 155.60 132.54 149.61 129.90 144.28 C 128.50 139.09 125.46 134.65 122.77 130.08 C 118.90 129.94 115.01 130.26 111.16 129.79 C 109.23 129.22 106.88 126.57 108.54 124.61 C 112.15 120.40 115.71 116.07 118.09 111.01 C 120.70 106.14 125.01 100.95 131.01 100.90 C 133.10 100.55 135.64 100.91 137.32 99.39 C 138.27 97.66 138.94 95.80 139.72 94.00 C 137.35 88.97 131.11 89.70 126.61 90.74 C 122.39 92.53 117.87 94.22 114.87 97.88 C 111.92 100.57 110.42 104.29 108.66 107.77 C 103.23 115.26 95.41 121.88 85.90 122.95 C 74.51 124.76 63.64 117.81 56.81 109.21 C 54.80 105.47 53.70 101.22 50.77 98.01 C 48.23 98.20 44.78 98.20 44.08 101.31 C 41.98 107.41 49.11 111.80 47.99 117.83 C 40.16 119.17 32.07 116.88 25.62 112.40 C 20.16 107.61 13.98 101.82 13.90 94.01 C 13.79 89.73 14.42 84.81 18.12 82.08 C 24.03 76.25 32.96 75.97 40.60 77.68 C 43.70 78.50 47.85 80.39 50.21 77.14 C 52.51 75.43 52.01 72.49 50.67 70.35 C 47.68 68.18 43.79 68.29 40.34 67.43 C 37.61 66.71 34.81 66.15 31.97 66.26 C 26.17 66.01 21.05 70.00 15.17 68.96 C 15.08 65.32 14.23 61.36 15.98 57.97 C 17.19 55.61 18.17 52.99 20.26 51.24 C 23.71 47.82 28.48 46.21 32.07 42.99 C 33.64 39.90 33.93 36.08 36.59 33.62 C 39.44 30.68 42.80 28.11 46.64 26.63 C 51.21 24.84 56.19 25.95 60.92 25.34 C 66.00 21.62 70.33 16.62 76.42 14.44 M 74.90 17.87 C 69.99 19.93 66.57 24.13 62.46 27.30 C 56.63 28.15 50.32 26.90 44.94 29.96 C 39.41 32.42 36.45 37.98 34.42 43.37 C 33.28 47.23 28.85 47.87 25.93 49.94 C 20.25 53.23 16.85 59.82 17.64 66.37 C 26.33 63.92 35.61 63.49 44.46 65.31 C 48.31 66.15 53.09 67.64 54.05 72.05 C 55.58 77.08 50.47 82.33 45.44 81.42 C 37.96 80.33 29.75 77.79 22.60 81.57 C 18.66 83.43 16.46 87.71 16.57 91.98 C 16.03 99.21 20.83 105.48 26.16 109.80 C 31.47 114.15 38.48 115.98 45.27 115.31 C 43.80 110.93 40.51 106.86 40.86 102.06 C 41.40 96.31 49.36 93.77 53.38 97.64 C 56.32 100.94 57.44 105.39 60.00 108.95 C 63.65 114.55 69.76 117.97 76.00 119.93 C 84.80 122.32 94.57 119.34 101.11 113.13 C 106.05 108.44 108.01 101.59 112.68 96.68 C 118.38 90.22 127.38 86.61 135.94 87.91 C 142.08 89.11 143.65 98.12 138.62 101.60 C 134.92 103.53 130.24 102.34 126.69 104.71 C 122.67 107.53 120.68 112.20 118.26 116.30 C 116.19 120.03 113.25 123.15 110.54 126.42 C 113.90 127.37 117.39 127.24 120.84 127.38 C 123.44 127.30 125.13 129.61 126.52 131.47 C 131.94 139.75 134.50 149.42 138.06 158.55 C 141.19 157.86 144.42 157.01 146.92 154.89 C 148.45 153.64 150.47 151.79 149.41 149.61 C 146.67 141.99 142.00 135.17 139.66 127.38 C 138.99 125.61 139.55 123.08 141.71 122.76 C 146.81 121.17 152.58 120.54 156.48 116.48 C 163.55 110.62 164.39 100.56 163.12 92.08 C 161.17 83.76 154.16 77.30 146.14 74.80 C 141.85 73.20 137.12 73.57 132.83 72.07 C 127.13 69.39 127.73 59.41 134.13 58.07 C 140.76 56.95 147.48 59.08 153.71 61.22 C 159.73 63.26 164.43 67.65 169.30 71.54 C 171.57 64.14 171.01 55.32 165.83 49.22 C 160.98 42.76 153.09 40.15 146.13 36.73 C 142.51 33.67 141.22 28.54 137.25 25.73 C 128.87 18.79 116.35 20.15 107.49 25.45 C 102.84 28.16 98.68 33.82 100.68 39.37 C 103.57 41.99 108.46 41.72 110.71 45.26 C 113.26 49.03 110.99 54.14 107.39 56.31 C 101.71 58.06 96.33 54.90 91.38 52.54 C 88.43 54.64 85.46 56.96 81.84 57.75 C 77.31 58.95 71.55 58.66 68.63 54.47 C 67.86 51.21 67.95 47.06 70.82 44.81 C 73.70 42.83 77.71 43.49 80.54 41.53 C 83.09 38.00 83.89 33.59 85.53 29.62 C 87.22 24.72 90.51 20.66 93.05 16.20 C 87.01 15.25 80.49 14.99 74.90 17.87 Z" />
<path fill="#050505" opacity="0.96" d=" M 94.35 67.57 C 98.78 66.99 104.70 66.08 107.64 70.36 C 109.93 73.20 109.62 77.51 107.08 80.09 C 103.62 83.84 97.10 80.74 93.90 84.84 C 92.28 88.82 94.81 94.08 91.44 97.47 C 88.34 100.99 81.85 100.72 79.43 96.56 C 77.56 93.05 77.35 88.87 77.83 84.99 C 78.91 76.47 86.11 69.38 94.35 67.57 M 96.43 69.55 C 92.66 70.07 88.98 71.53 86.22 74.22 C 81.99 77.87 80.49 83.60 79.81 88.91 C 80.41 91.47 80.67 94.51 82.56 96.46 C 85.13 97.39 89.51 97.84 90.73 94.67 C 91.47 90.68 89.60 85.95 92.67 82.61 C 95.08 78.93 100.02 80.37 103.68 79.58 C 105.85 78.17 107.90 75.28 106.37 72.69 C 104.68 68.94 99.91 68.85 96.43 69.55 Z" />
</g>
<g id="#ffffffff">
<path fill="#ffffff" opacity="1.00" d=" M 56.78 14.88 C 67.81 2.53 87.11 -1.21 102.01 5.96 C 105.08 7.39 108.19 9.79 111.77 8.96 C 120.12 7.91 129.22 6.87 136.99 10.85 C 142.46 12.90 147.36 16.50 150.72 21.31 C 152.48 23.45 153.77 26.26 156.46 27.40 C 160.97 29.41 165.51 31.52 169.46 34.52 C 174.68 38.42 178.19 44.09 181.19 49.77 C 182.90 53.99 183.26 58.61 183.82 63.08 C 183.65 67.33 182.67 71.53 181.65 75.65 C 180.60 79.97 177.58 83.57 176.87 88.00 C 176.47 92.82 177.19 97.68 176.66 102.51 C 175.16 112.39 170.90 122.51 162.55 128.49 C 160.86 129.86 158.01 130.18 157.07 132.23 C 156.70 139.39 162.99 144.86 162.97 151.96 C 162.20 158.99 156.95 164.95 150.62 167.76 C 144.94 171.16 137.92 171.87 131.56 170.40 C 127.05 168.97 126.77 163.64 124.86 160.05 C 122.61 153.71 119.93 147.55 117.48 141.29 C 112.72 140.28 107.74 139.90 103.33 137.69 C 100.30 136.40 97.99 133.91 94.97 132.64 C 91.91 132.45 88.94 133.40 85.92 133.69 C 81.10 134.23 76.26 133.38 71.61 132.19 C 67.47 131.07 63.90 128.45 59.72 127.48 C 55.43 127.15 51.26 128.60 46.98 128.64 C 35.05 129.46 22.92 124.97 14.26 116.74 C 9.28 110.65 4.46 103.79 3.48 95.77 C 2.71 90.20 4.35 84.63 6.59 79.58 C 7.71 77.28 5.89 75.02 5.36 72.81 C 2.55 64.53 5.33 55.71 9.23 48.30 C 12.41 42.80 18.18 39.79 23.14 36.18 C 25.42 32.45 27.06 28.28 29.96 24.96 C 34.00 21.09 38.78 17.89 44.13 16.15 C 48.20 14.78 52.55 15.04 56.78 14.88 M 76.42 14.44 C 70.33 16.62 66.00 21.62 60.92 25.34 C 56.19 25.95 51.21 24.84 46.64 26.63 C 42.80 28.11 39.44 30.68 36.59 33.62 C 33.93 36.08 33.64 39.90 32.07 42.99 C 28.48 46.21 23.71 47.82 20.26 51.24 C 18.17 52.99 17.19 55.61 15.98 57.97 C 14.23 61.36 15.08 65.32 15.17 68.96 C 21.05 70.00 26.17 66.01 31.97 66.26 C 34.81 66.15 37.61 66.71 40.34 67.43 C 43.79 68.29 47.68 68.18 50.67 70.35 C 52.01 72.49 52.51 75.43 50.21 77.14 C 47.85 80.39 43.70 78.50 40.60 77.68 C 32.96 75.97 24.03 76.25 18.12 82.08 C 14.42 84.81 13.79 89.73 13.90 94.01 C 13.98 101.82 20.16 107.61 25.62 112.40 C 32.07 116.88 40.16 119.17 47.99 117.83 C 49.11 111.80 41.98 107.41 44.08 101.31 C 44.78 98.20 48.23 98.20 50.77 98.01 C 53.70 101.22 54.80 105.47 56.81 109.21 C 63.64 117.81 74.51 124.76 85.90 122.95 C 95.41 121.88 103.23 115.26 108.66 107.77 C 110.42 104.29 111.92 100.57 114.87 97.88 C 117.87 94.22 122.39 92.53 126.61 90.74 C 131.11 89.70 137.35 88.97 139.72 94.00 C 138.94 95.80 138.27 97.66 137.32 99.39 C 135.64 100.91 133.10 100.55 131.01 100.90 C 125.01 100.95 120.70 106.14 118.09 111.01 C 115.71 116.07 112.15 120.40 108.54 124.61 C 106.88 126.57 109.23 129.22 111.16 129.79 C 115.01 130.26 118.90 129.94 122.77 130.08 C 125.46 134.65 128.50 139.09 129.90 144.28 C 132.54 149.61 133.48 155.60 136.37 160.81 C 142.31 160.77 148.03 158.27 151.89 153.73 C 153.11 150.11 151.12 146.68 149.56 143.55 C 147.03 137.21 142.89 131.48 142.12 124.53 C 146.87 123.51 152.22 123.38 156.06 120.05 C 159.14 117.48 162.86 114.96 163.83 110.81 C 165.96 103.60 166.96 95.68 164.63 88.40 C 162.97 82.44 157.64 78.54 152.78 75.20 C 147.47 71.38 140.67 71.57 134.54 70.28 C 132.52 69.04 130.51 66.81 131.29 64.26 C 131.72 61.16 135.16 59.70 137.97 60.03 C 146.82 60.84 155.63 63.76 162.69 69.27 C 165.53 71.19 167.90 74.30 171.68 74.12 C 172.52 68.11 173.87 61.90 172.03 55.92 C 170.78 49.79 165.78 45.60 161.32 41.68 C 156.95 38.37 151.57 36.78 146.81 34.14 C 144.87 31.74 143.61 28.84 141.43 26.62 C 138.35 23.16 134.23 20.70 129.90 19.15 C 123.65 18.61 116.95 18.07 111.18 21.02 C 104.41 22.97 99.37 28.66 97.03 35.14 C 96.76 39.06 99.84 43.58 103.93 44.05 C 106.11 44.53 109.45 45.02 109.02 48.05 C 109.84 51.57 106.50 55.02 102.99 54.58 C 98.97 54.03 95.72 51.36 91.98 50.01 C 90.01 50.27 88.63 52.02 86.97 53.00 C 82.53 56.34 76.47 56.60 71.43 54.56 C 70.95 52.28 69.77 49.64 71.53 47.61 C 74.13 44.15 79.47 46.23 82.43 43.38 C 86.15 38.78 86.27 32.49 89.31 27.50 C 90.91 22.86 96.47 19.65 94.94 14.19 C 88.82 13.18 82.43 12.57 76.42 14.44 Z" />
<path fill="#ffffff" opacity="1.00" d=" M 96.43 69.55 C 99.91 68.85 104.68 68.94 106.37 72.69 C 107.90 75.28 105.85 78.17 103.68 79.58 C 100.02 80.37 95.08 78.93 92.67 82.61 C 89.60 85.95 91.47 90.68 90.73 94.67 C 89.51 97.84 85.13 97.39 82.56 96.46 C 80.67 94.51 80.41 91.47 79.81 88.91 C 80.49 83.60 81.99 77.87 86.22 74.22 C 88.98 71.53 92.66 70.07 96.43 69.55 Z" />
</g>
</svg>
