<?xml version="1.0" standalone="no"?>
<!DOCTYPE svg PUBLIC "-//W3C//DTD SVG 20010904//EN"
 "http://www.w3.org/TR/2001/REC-SVG-20010904/DTD/svg10.dtd">
<svg version="1.0" xmlns="http://www.w3.org/2000/svg"
 width="835.000000pt" height="788.000000pt" viewBox="0 0 835.000000 788.000000"
 preserveAspectRatio="xMidYMid meet">
<metadata>
Created by potrace 1.16, written by Peter Selinger 2001-2019
</metadata>
<g transform="translate(0.000000,788.000000) scale(0.100000,-0.100000)"
fill="#000000" stroke="none">
<path d="M3295 7510 c-82 -28 -205 -77 -273 -110 -112 -54 -172 -91 -367 -225
-109 -75 -155 -91 -392 -134 -254 -46 -368 -81 -511 -156 -143 -75 -249 -153
-367 -270 -109 -110 -184 -210 -266 -354 -71 -124 -114 -170 -277 -294 -176
-134 -228 -181 -308 -281 -129 -160 -216 -331 -270 -533 -23 -85 -27 -124 -31
-288 -5 -168 -2 -211 21 -372 34 -236 33 -293 -4 -435 -48 -185 -62 -290 -63
-448 0 -275 62 -493 212 -737 230 -378 585 -668 992 -811 296 -104 661 -126
1089 -66 166 23 198 18 392 -65 382 -163 568 -197 918 -170 96 8 216 14 266
14 l91 0 79 -49 c229 -143 311 -176 579 -229 l159 -32 53 -122 c29 -66 91
-228 138 -360 149 -409 190 -503 267 -595 49 -59 180 -148 278 -188 71 -29 78
-30 235 -30 148 0 170 2 266 29 330 94 608 264 775 475 127 160 194 331 194
493 0 149 -34 271 -155 554 -36 84 -64 158 -61 164 2 7 64 61 138 120 73 60
172 148 220 196 216 219 356 528 419 927 6 37 14 193 19 347 9 334 10 337 139
658 49 122 101 265 115 317 25 93 26 102 26 407 l0 312 -39 118 c-107 324
-241 544 -463 758 -175 170 -307 262 -563 394 -167 86 -210 122 -364 300 -145
168 -220 237 -336 314 -125 82 -247 142 -384 187 -269 90 -492 108 -837 71
-162 -18 -212 -21 -259 -12 -32 6 -157 53 -279 106 -122 52 -263 108 -314 125
l-94 30 -326 0 -327 0 -150 -50z m820 -149 c149 -35 242 -69 413 -152 216
-105 221 -106 440 -78 131 17 227 23 372 23 281 0 397 -26 645 -143 236 -112
369 -223 535 -446 54 -71 113 -144 131 -162 19 -18 97 -61 177 -97 347 -160
545 -305 707 -521 77 -102 209 -324 236 -395 54 -142 105 -472 95 -604 -8 -90
-36 -246 -72 -391 -31 -124 -32 -128 -116 -307 -98 -211 -98 -212 -98 -544 0
-306 -7 -368 -60 -570 -33 -123 -105 -309 -152 -393 -130 -231 -318 -427 -480
-500 -35 -15 -78 -41 -97 -56 l-34 -29 5 -85 c6 -97 32 -173 136 -396 81 -174
106 -267 99 -365 -13 -184 -140 -398 -318 -535 -68 -53 -238 -147 -336 -186
-39 -15 -117 -38 -172 -49 -183 -37 -442 -20 -538 36 -73 42 -94 80 -202 359
-61 159 -323 819 -327 823 -1 2 -83 19 -183 38 -290 55 -391 93 -582 221 -57
39 -118 77 -136 86 -44 23 -122 21 -267 -5 -181 -33 -405 -31 -581 6 -170 35
-232 56 -398 132 -199 92 -259 108 -365 100 -48 -3 -143 -15 -212 -25 -251
-38 -464 -35 -682 9 -374 77 -760 294 -953 536 -151 190 -271 392 -328 551
-105 291 -94 522 39 861 52 133 52 146 5 265 -54 137 -75 240 -74 377 0 211
51 410 167 645 101 205 175 281 469 485 l152 105 81 149 c124 227 168 290 264
373 195 172 430 297 635 339 39 8 149 17 245 21 l175 6 95 91 c222 212 493
344 835 407 141 26 478 21 610 -10z"/>
<path d="M3612 6930 c-245 -26 -370 -91 -692 -360 -74 -62 -145 -120 -158
-128 -18 -12 -75 -17 -265 -22 -272 -9 -297 -14 -437 -86 -166 -86 -344 -242
-398 -350 -17 -34 -48 -109 -68 -168 -42 -123 -60 -143 -211 -235 -320 -197
-377 -250 -475 -444 -68 -136 -81 -205 -72 -378 6 -128 8 -138 28 -143 65 -18
165 -1 376 62 l155 46 165 0 c145 0 178 -3 275 -27 61 -14 153 -34 205 -42
118 -20 172 -36 237 -69 46 -23 54 -32 72 -81 36 -97 23 -165 -46 -236 -75
-77 -157 -87 -324 -40 -159 45 -240 56 -409 55 -124 0 -172 -4 -241 -21 -154
-39 -259 -97 -376 -207 -110 -104 -150 -205 -160 -406 -12 -265 68 -433 331
-695 156 -156 242 -215 412 -287 152 -63 267 -89 425 -95 75 -3 161 -3 192 1
l57 7 0 55 c0 69 -29 155 -90 269 -87 162 -107 256 -76 360 27 88 85 124 227
140 l57 7 46 -64 c25 -36 62 -100 82 -144 135 -290 125 -274 235 -389 223
-231 479 -382 740 -435 173 -36 397 -21 568 36 312 104 639 392 791 693 70
140 108 198 192 291 106 119 204 183 423 277 216 93 461 84 569 -21 25 -25 48
-55 51 -69 5 -17 -8 -57 -42 -133 -45 -103 -51 -110 -93 -131 -33 -16 -78 -25
-165 -33 -66 -6 -149 -20 -185 -30 -157 -46 -313 -206 -433 -446 -52 -103
-160 -261 -275 -401 -56 -67 -106 -132 -112 -144 -26 -48 20 -133 92 -170 37
-19 64 -21 279 -26 l239 -6 89 -151 c109 -186 140 -247 179 -356 17 -47 40
-107 52 -135 12 -27 53 -142 92 -255 38 -113 88 -245 111 -293 l41 -89 70 7
c207 21 404 114 541 255 38 39 40 44 43 113 5 98 -16 159 -169 477 -67 140
-141 302 -165 360 -48 115 -92 286 -78 299 5 5 79 21 164 36 157 28 266 60
330 98 58 34 212 162 276 229 85 88 109 136 149 289 96 375 86 721 -27 956
-67 136 -178 252 -389 402 -184 132 -289 169 -609 216 -96 14 -189 30 -207 36
-67 21 -152 133 -153 200 0 83 50 163 130 205 54 29 229 25 394 -10 338 -70
589 -187 861 -401 55 -43 120 -91 144 -106 40 -26 146 -57 157 -46 3 3 15 63
26 133 17 99 22 175 22 324 1 174 -2 205 -22 285 -48 185 -117 291 -311 477
-170 164 -233 205 -516 333 -93 42 -185 86 -203 97 -21 13 -66 69 -121 152
-49 72 -112 157 -141 189 -78 86 -198 171 -334 237 l-121 59 -155 12 c-308 22
-488 -10 -760 -137 -188 -88 -382 -308 -456 -516 -26 -75 17 -212 94 -291 54
-56 106 -83 205 -106 114 -27 160 -51 181 -95 19 -40 21 -122 4 -177 -23 -78
-105 -148 -191 -164 -61 -12 -165 21 -340 107 -132 65 -168 79 -195 74 -19 -3
-80 -39 -145 -85 -192 -138 -353 -177 -555 -135 -133 27 -135 29 -156 122 -11
47 -17 97 -13 122 13 102 97 162 259 186 51 7 112 18 135 25 103 28 169 132
262 417 69 208 141 358 240 497 97 135 115 174 119 263 3 41 0 78 -4 82 -27
27 -411 54 -552 40z m346 -174 c1 -2 -34 -61 -79 -132 -106 -169 -154 -271
-229 -488 -75 -220 -119 -310 -160 -331 -16 -8 -89 -29 -161 -45 -155 -35
-218 -66 -271 -136 -51 -67 -69 -122 -75 -234 -8 -136 7 -197 62 -258 87 -96
220 -146 390 -146 184 1 325 48 505 169 l84 56 86 -40 c238 -110 414 -145 558
-109 147 36 272 217 272 392 0 77 -11 118 -52 186 -43 72 -112 122 -228 167
-201 77 -207 83 -197 195 27 295 491 560 937 535 173 -10 315 -58 443 -151 90
-64 134 -115 232 -264 130 -199 145 -211 374 -317 227 -104 338 -166 439 -242
187 -143 311 -345 343 -563 13 -89 8 -306 -8 -335 -8 -14 -21 -7 -91 50 -204
164 -356 250 -569 321 -304 100 -529 137 -708 116 -160 -18 -253 -81 -313
-210 -24 -51 -27 -68 -27 -172 0 -103 3 -121 26 -171 15 -31 44 -75 65 -98 74
-82 136 -104 416 -145 92 -14 202 -37 245 -51 370 -124 630 -405 674 -731 16
-125 6 -365 -21 -474 -56 -227 -211 -427 -404 -520 -49 -24 -160 -61 -279 -93
-227 -62 -255 -79 -282 -171 -21 -68 -19 -82 16 -193 39 -125 94 -250 212
-490 110 -222 187 -401 187 -433 0 -34 -99 -124 -182 -164 -95 -46 -177 -70
-183 -53 -204 570 -277 752 -372 922 -74 134 -130 211 -198 273 -73 67 -123
82 -274 83 -64 0 -135 4 -158 7 l-42 7 50 60 c88 106 154 206 254 380 134 234
204 318 305 370 20 10 104 28 191 41 188 28 257 52 315 109 54 55 82 109 100
197 41 196 -74 407 -249 460 -27 9 -102 13 -212 12 -151 0 -181 -3 -268 -27
-216 -58 -391 -159 -553 -321 -106 -106 -169 -193 -294 -406 -93 -160 -152
-239 -237 -321 -272 -261 -673 -360 -1007 -248 -198 66 -369 170 -492 300 -82
87 -110 130 -205 317 -109 215 -163 286 -253 332 -59 30 -81 36 -152 38 -138
6 -244 -36 -328 -129 -67 -75 -89 -142 -84 -259 5 -108 24 -170 97 -326 l48
-101 -51 4 c-297 21 -499 115 -707 330 -199 205 -271 380 -249 610 15 167 86
269 235 339 158 75 321 80 685 19 257 -44 315 -43 414 3 151 71 250 236 232
388 -22 185 -149 311 -376 373 -294 81 -693 92 -1018 30 -56 -11 -109 -22
-117 -25 -37 -14 -7 142 46 249 76 150 160 227 368 336 186 98 214 127 285
295 75 175 126 258 215 347 78 79 174 136 286 172 66 22 197 37 315 37 52 0
140 5 194 10 113 11 101 4 276 160 150 134 216 183 321 235 161 81 291 107
494 99 66 -3 121 -7 123 -8z"/>
<path d="M4179 4755 c-206 -30 -392 -128 -545 -286 -123 -129 -192 -249 -236
-411 -19 -70 -23 -109 -23 -243 0 -137 3 -171 23 -238 43 -150 94 -224 189
-275 166 -88 362 -57 486 78 78 84 88 119 97 338 6 173 8 183 30 207 29 31 99
51 205 60 220 18 325 77 394 224 23 49 26 68 26 161 0 93 -3 112 -27 162 -33
71 -102 146 -166 181 -101 55 -262 70 -453 42z m338 -175 c124 -55 180 -181
126 -285 -12 -22 -42 -60 -66 -84 l-45 -43 -146 -8 c-88 -5 -165 -15 -195 -25
-60 -19 -122 -78 -159 -150 -25 -48 -27 -59 -32 -247 -5 -180 -7 -199 -26
-225 -39 -52 -80 -68 -174 -67 -118 0 -156 16 -192 80 -16 29 -39 97 -52 156
-22 99 -23 109 -10 186 22 124 61 247 106 337 58 112 191 245 303 302 186 95
438 128 562 73z"/>
</g>
</svg>
